Coordinates
version=1
nRows=8
nColumns=40
inDegrees=yes

Units are S.I. units (second, meters, Newtons, ...)
Angles are in degrees.

endheader
time	pelvis_tilt	pelvis_list	pelvis_rotation	pelvis_tx	pelvis_ty	pelvis_tz	hip_flexion_r	hip_adduction_r	hip_rotation_r	knee_angle_r	knee_angle_r_beta	ankle_angle_r	subtalar_angle_r	mtp_angle_r	hip_flexion_l	hip_adduction_l	hip_rotation_l	knee_angle_l	knee_angle_l_beta	ankle_angle_l	subtalar_angle_l	mtp_angle_l	lumbar_extension	lumbar_bending	lumbar_rotation	arm_flex_r	arm_add_r	arm_rot_r	elbow_flex_r	pro_sup_r	wrist_flex_r	wrist_dev_r	arm_flex_l	arm_add_l	arm_rot_l	elbow_flex_l	pro_sup_l	wrist_flex_l	wrist_dev_l
     17.28342857	     -8.39908110	     -3.50024834	    -11.35134023	      1.01029410	      0.92284017	      0.43111378	     28.38028472	     -1.65091069	     -3.38165176	     17.53581910	     17.53581910	      5.90708630	      9.55189806	      0.34008127	     12.19742348	     -2.99829691	    -11.94812655	     20.88122000	     20.88122000	     18.83884691	    -16.99741812	      6.05039737	    -10.92901851	      6.76239098	      2.53622004	    -19.14761843	    -10.19473350	     -8.63527562	     27.02911390	     45.85029834	      0.00000000	      0.00000000	     43.44968501	    -23.89556545	     -1.88958448	     67.19697031	     47.73089542	      0.00000000	      0.00000000
     17.30685714	     -8.34009624	     -3.15655024	    -11.81864424	      1.01162012	      0.92190289	      0.43547751	     28.33287552	     -1.56825464	     -4.26021036	     15.68861763	     15.68861763	      7.33575897	     13.41008680	      8.20971462	     11.35569592	     -2.83694359	    -12.54348048	     20.26862490	     20.26862490	     18.45195196	    -17.04821892	      4.35240676	    -10.90651903	      6.38221589	      2.19780100	    -19.72547653	    -10.26595146	     -7.73551991	     29.07012918	     45.71913047	      0.00000000	      0.00000000	     43.55165534	    -24.35219736	     -4.57589733	     70.19723000	     47.96133126	      0.00000000	      0.00000000
     17.33028571	     -8.26160025	     -2.85073349	    -12.11775749	      1.01341182	      0.92086224	      0.44010455	     28.11220738	     -1.32406443	     -4.17754674	     14.17483976	     14.17483976	      6.58436433	     14.99125956	      9.04318561	     10.60887221	     -2.71567531	    -12.92219452	     19.96560398	     19.96560398	     18.76713756	    -16.90203738	      4.16619635	    -10.76077582	      6.05203113	      2.40564562	    -19.68167547	    -10.05708419	     -7.46311511	     29.12545534	     45.70309098	      0.00000000	      0.00000000	     44.57643359	    -24.51841595	     -4.86899057	     71.01744423	     48.00110545	      0.00000000	      0.00000000
     17.35371429	     -8.33473565	     -2.59751317	    -12.26618110	      1.01553109	      0.91957336	      0.44484521	     28.35770800	     -1.07905474	     -3.78999566	     13.98289127	     13.98289127	      6.16503985	     15.49848053	      9.19721740	     10.11908718	     -2.67885342	    -13.04711409	     19.87358129	     19.87358129	     19.11274931	    -16.92086646	      4.02770056	    -10.38919017	      5.87880741	      2.45352278	    -19.42969540	     -9.95576502	     -7.40999817	     29.24966691	     45.69691455	      0.00000000	      0.00000000	     45.33544542	    -24.71613086	     -5.05724006	     71.42016908	     48.02603645	      0.00000000	      0.00000000
     17.37714286	     -8.17300444	     -2.34007471	    -12.30023025	      1.01834073	      0.91891031	      0.44965218	     28.20681222	     -0.99123971	     -3.58996094	     14.13465804	     14.13465804	      5.44904254	     15.95084877	      7.61863784	      9.12374481	     -2.56256821	    -13.32972767	     19.33557067	     19.33557067	     19.21894025	    -16.52353400	      3.53600493	    -10.33104072	      5.59191439	      2.42695672	    -19.08047479	    -10.03311487	     -6.90690899	     29.60414816	     45.66399875	      0.00000000	      0.00000000	     45.42464152	    -24.51390008	     -6.40576052	     73.57061660	     48.14982011	      0.00000000	      0.00000000
     17.40057143	     -8.09512701	     -2.18136890	    -12.19362780	      1.02151956	      0.91806431	      0.45463808	     28.18668301	     -0.78660378	     -2.97275405	     14.83013637	     14.83013637	      4.03820523	     15.29322428	      2.63291249	      8.32044116	     -2.58360722	    -13.35589164	     19.05569478	     19.05569478	     19.32961334	    -16.35394053	      3.03919466	    -10.12448885	      5.53891125	      1.81675558	    -18.26729699	    -10.40549418	     -5.78555740	     29.65349079	     45.62688034	      0.00000000	      0.00000000	     44.99680357	    -24.87895893	     -7.81369359	     75.18717768	     48.25420543	      0.00000000	      0.00000000
     17.42400000	     -8.02375743	     -2.03787855	    -11.96609523	      1.02498833	      0.91747912	      0.45971384	     28.36460999	     -0.65944024	     -2.49075648	     16.35333809	     16.35333809	      4.22315737	     14.34000818	      1.32980857	      7.48232865	     -2.61539079	    -13.29653396	     18.71321278	     18.71321278	     19.53250038	    -16.05449822	      3.01845785	     -9.88932074	      5.47403649	      1.87499768	    -17.79666901	    -10.64641130	     -5.62669607	     29.70860138	     45.62594569	      0.00000000	      0.00000000	     45.22334938	    -24.67483543	     -7.90665126	     75.59423146	     48.26569966	      0.00000000	      0.00000000
     17.44742857	     -7.91728275	     -1.92455715	    -11.65279363	      1.02877332	      0.91709580	      0.46494162	     28.44359663	     -0.51284932	     -1.92430630	     18.00785961	     18.00785961	      4.51468972	     12.99812978	     -0.14487120	      6.58997104	     -2.69493135	    -13.19606237	     18.36827702	     18.36827702	     19.67313052	    -15.68112696	      2.99424554	     -9.70193159	      5.43174655	      1.84857292	    -17.24555114	    -10.96505159	     -5.55931136	     29.78319189	     45.63000034	      0.00000000	      0.00000000	     45.21976612	    -24.42230458	     -8.11740907	     76.05971977	     48.28514320	      0.00000000	      0.00000000
